<svg width="699" height="617" viewBox="0 0 699 617" fill="none" xmlns="http://www.w3.org/2000/svg">
<g clip-path="url(#clip0)">
<path d="M346.638 380.226C331.11 356.269 298.855 344.013 274.054 342.299C229.97 339.269 196.995 368.529 172.911 389.914C115.475 440.924 99.2947 503.506 87.0593 550.866C69.7068 618.021 81.9522 639.644 85.9678 645.912C101.172 669.659 130.799 680.358 151.515 681.747C259.838 689.259 399.869 462.593 346.638 380.226Z" fill="#4CA83F"/>
<path d="M638.37 390.029C668.446 389.412 692.328 364.546 691.711 334.491C691.093 304.435 666.212 280.571 636.135 281.189C606.059 281.806 582.178 306.672 582.795 336.727C583.412 366.783 608.294 390.647 638.37 390.029Z" fill="#F4C7A0"/>
<path d="M612.389 341.46C555.253 335.389 503.814 434.956 415.84 441.464C375.166 444.472 353.566 425.596 337.839 435.527C319.512 447.109 325.417 487.53 357.336 500.865C422.928 528.267 569.776 429.36 605.782 402.645C627.105 386.874 644.753 370.209 639.768 357.227C636.674 349.126 624.96 342.799 612.389 341.46Z" fill="#F4C7A0"/>
<path d="M155.562 145.257C181.925 144.715 202.858 122.92 202.317 96.5744C201.777 70.2291 179.966 49.3109 153.603 49.8522C127.239 50.3935 106.306 72.1893 106.847 98.5346C107.388 124.88 129.198 145.798 155.562 145.257Z" fill="#F4C7A0"/>
<path d="M163.316 118.163C197.196 155.39 153.381 243.302 194.337 308.838C213.281 339.114 237.815 344.628 238.878 360.897C240.175 379.831 208.529 396.593 182.559 380.951C129.183 348.826 123.136 193.798 123.391 154.516C123.54 131.259 126.163 110.187 137.936 106.942C145.311 104.977 155.86 109.973 163.316 118.163Z" fill="#F4C7A0"/>
<path d="M170.861 158.077C172.921 156.63 174.832 154.982 176.565 153.156C180.924 196.726 163.322 259.197 194.337 308.838C213.281 339.114 237.815 344.628 238.878 360.897C240.175 379.831 208.529 396.593 182.559 380.95C129.324 348.823 123.165 194.59 123.384 154.823C129.726 160.72 137.903 164.261 146.546 164.853C155.188 165.446 163.772 163.054 170.861 158.077Z" fill="#479B37"/>
<path d="M638.37 390.029C668.446 389.412 692.328 364.546 691.711 334.491C691.093 304.435 666.212 280.571 636.135 281.189C606.059 281.806 582.178 306.672 582.795 336.727C583.412 366.783 608.294 390.647 638.37 390.029Z" fill="#F4C7A0"/>
<path d="M639.768 357.215C636.674 349.126 624.96 342.799 612.389 341.46C598.525 339.994 585.006 344.744 571.223 352.859C569.201 364.023 571.665 375.533 578.08 384.892C584.496 394.252 594.345 400.706 605.493 402.855L605.782 402.645C627.104 386.823 644.74 370.209 639.768 357.215Z" fill="#F4C7A0"/>
<path d="M570.541 361.383C570.48 358.509 570.708 355.636 571.222 352.808C569.807 353.642 568.393 354.527 566.967 355.451C550.268 366.016 533.087 381.1 514.374 395.693L513.43 396.44L510.914 398.408L507.817 400.772L505.765 402.322L503.661 403.873C503.044 404.333 502.401 404.793 501.796 405.189L498.231 407.817L496.593 408.963L493.87 410.846L492.356 411.873C491.096 412.742 489.771 413.613 488.46 414.509L487.021 415.433C485.961 416.119 484.913 416.754 483.84 417.44L482.578 418.22C481.189 419.066 479.799 419.887 478.41 420.707L477.057 421.476C475.882 422.152 474.693 422.803 473.505 423.466L472.443 424.05C470.989 424.834 469.521 425.592 468.041 426.338L466.775 426.977C465.467 427.617 464.163 428.245 462.863 428.859L461.989 429.26C460.456 429.969 458.897 430.601 457.338 431.285L456.07 431.809C454.65 432.388 453.23 432.954 451.796 433.482L451.111 433.751C449.486 434.334 447.861 434.904 446.223 435.436L444.953 435.845C443.416 436.324 441.878 436.79 440.314 437.218L439.818 437.356C438.127 437.825 436.423 438.244 434.73 438.636L433.458 438.931C431.777 439.297 430.097 439.638 428.364 439.942L428.096 439.948C426.325 440.265 424.54 440.519 422.742 440.761L421.403 440.929C419.579 441.145 417.742 441.336 415.891 441.476C413.338 441.669 410.885 441.771 408.482 441.794C406.078 441.818 403.763 441.776 401.511 441.682C391.665 441.124 381.898 439.591 372.355 437.106C369.862 436.505 367.498 435.928 365.235 435.348L363.012 434.806C361.547 434.453 360.135 434.137 358.748 433.846C356.693 433.415 354.73 433.085 352.846 432.868C351.565 432.729 350.374 432.651 349.184 432.624C345.214 432.455 341.282 433.469 337.89 435.539C329.875 440.61 326.487 451.195 327.897 462.576C328.104 464.238 328.402 465.887 328.791 467.515C330.05 472.689 332.156 477.619 335.023 482.107C337.585 486.109 340.717 489.716 344.321 492.815C345.84 494.107 347.431 495.312 349.088 496.422C351.711 498.148 354.49 499.626 357.387 500.839L357.838 501.008C358.715 501.361 359.604 501.713 360.518 502.026L361.715 502.398C362.397 502.614 363.067 502.843 363.761 503.046L364.956 503.341C365.676 503.518 366.383 503.72 367.115 503.871L368.399 504.126C369.106 504.278 369.812 504.417 370.53 504.542C371.005 504.622 371.505 504.676 371.979 504.743C372.684 504.843 373.377 504.957 374.095 505.044L375.594 505.18C376.311 505.241 377.029 505.329 377.759 505.378L379.269 505.449C380.01 505.434 380.754 505.534 381.508 505.556L382.965 505.526C383.758 505.51 384.55 505.494 385.343 505.478L386.825 505.447C387.643 505.43 388.448 505.414 389.266 505.397L390.747 505.303C391.591 505.285 392.42 505.205 393.301 505.123L394.705 504.992C395.598 504.909 396.479 504.827 397.384 504.719L398.812 504.537L401.529 504.187L402.93 503.954C403.874 503.819 404.804 503.673 405.747 503.513L407.148 503.254C408.103 503.081 409.059 502.908 410.027 502.709L411.427 502.412C412.407 502.213 413.375 502.014 414.355 501.79L415.767 501.467L418.745 500.754L420.182 500.393L423.184 499.615L424.595 499.216L427.658 498.361L429.031 497.949L432.182 496.99L433.452 496.581L436.717 495.543L438.063 495.093C439.142 494.726 440.222 494.372 441.301 493.992L442.646 493.517L445.921 492.351L447.253 491.851L450.553 490.621L451.821 490.122L455.181 488.775L456.513 488.237L459.848 486.891L461.192 486.326L464.527 484.98L465.794 484.43L469.203 482.955L470.47 482.392L473.878 480.878L475.145 480.277L478.514 478.739L479.78 478.125L483.162 476.548L484.427 475.921C485.554 475.387 486.669 474.853 487.795 474.293L489.061 473.68L492.453 472.013L493.719 471.361L497.047 469.695L498.413 468.99L501.64 467.327L503.018 466.596L506.194 464.946L507.61 464.189L510.721 462.528L512.137 461.745L515.197 460.085L516.651 459.288L519.648 457.63L521.101 456.808L524.034 455.163L525.525 454.315L528.381 452.685L529.86 451.837L532.665 450.207L534.143 449.334L536.884 447.731L538.426 446.818L541.04 445.257L542.606 444.317L545.132 442.796L546.723 441.831L549.148 440.35L550.701 439.398L553.087 437.918L554.628 436.967L556.938 435.526L558.541 434.51L560.687 433.188L562.379 432.118L564.346 430.8L566.088 429.691L567.917 428.504L569.671 427.369L571.4 426.247L573.154 425.1L574.768 424.032L576.559 422.845L578.023 421.869L579.901 420.553L581.162 419.722L583.117 418.404L584.202 417.679C584.845 417.232 585.462 416.797 586.118 416.362L587.101 415.678L588.992 414.361L589.887 413.755L591.817 412.438L592.523 411.95L594.489 410.568L595.031 410.187L596.973 408.869L597.401 408.554L599.254 407.238L599.644 406.962L601.484 405.646L601.723 405.475L603.486 404.161L603.65 404.043L605.375 402.73C595.719 400.844 587 395.714 580.664 388.193C574.327 380.672 570.756 371.212 570.541 361.383Z" fill="#479B37"/>
<path d="M305.151 421.467C334.112 420.872 357.187 400.783 356.69 376.596C356.193 352.409 332.313 333.284 303.352 333.878C274.392 334.473 251.317 354.562 251.813 378.749C252.31 402.936 276.19 422.061 305.151 421.467Z" fill="#479B37"/>
<path d="M307.163 414.232C333.35 413.694 354.189 394.297 353.709 370.907C353.229 347.518 331.611 328.992 305.424 329.53C279.237 330.068 258.398 349.465 258.878 372.854C259.358 396.244 280.976 414.77 307.163 414.232Z" fill="#EB977F"/>
<path d="M307.731 407.039C330.347 406.575 348.304 387.878 347.84 365.278C347.376 342.678 328.666 324.734 306.051 325.198C283.436 325.663 265.479 344.36 265.943 366.96C266.407 389.559 285.116 407.504 307.731 407.039Z" fill="#F4C7A0"/>
<path d="M482.098 238.622C500.182 144.375 459.887 57.4438 392.097 44.456C324.307 31.4683 254.692 97.3419 236.608 191.589C218.524 285.836 258.819 372.767 326.609 385.755C394.399 398.742 464.014 332.869 482.098 238.622Z" fill="#F4C7A0"/>
<path d="M413.356 126.228L304.722 128.459C284.385 128.876 264.714 121.203 250.038 107.128C235.362 93.052 226.883 73.7267 226.466 53.4031L225.563 9.43019L334.197 7.19972C354.535 6.78215 374.205 14.4552 388.881 28.5309C403.557 42.6065 412.036 61.9318 412.454 82.2554L413.356 126.228Z" fill="#E66E0F"/>
<path d="M445.148 135.21L342.303 137.321C326.904 137.637 312.01 131.828 300.898 121.17C289.786 110.512 283.366 95.8798 283.05 80.4915L282.473 52.3937C282.42 49.8296 283.389 47.3495 285.166 45.4991C286.943 43.6487 289.383 42.5796 291.949 42.5269L394.807 40.4151C410.206 40.0989 425.099 45.9087 436.211 56.5663C447.324 67.2239 453.744 81.8564 454.06 97.2447L454.637 125.342C454.663 126.613 454.438 127.877 453.975 129.06C453.512 130.244 452.82 131.325 451.939 132.242C451.058 133.158 450.004 133.892 448.839 134.401C447.673 134.91 446.419 135.185 445.148 135.21Z" fill="#DD3C1E"/>
<path d="M424.02 306.217L421.242 170.901C420.97 157.667 425.97 144.867 435.143 135.317C444.315 125.767 456.908 120.249 470.151 119.977L498.805 119.389L501.583 254.705C501.855 267.939 496.854 280.739 487.682 290.289C478.51 299.839 465.917 305.357 452.674 305.629L424.02 306.217Z" fill="#E66E0F"/>
<path d="M478.207 149.314L400.055 150.918C384.656 151.235 369.762 145.425 358.65 134.767C347.538 124.11 341.117 109.477 340.802 94.0888L340.476 78.2391C340.423 75.675 341.392 73.1949 343.169 71.3445C344.947 69.4941 347.387 68.425 349.952 68.3723L428.105 66.7677C443.504 66.4515 458.398 72.2613 469.51 82.9189C480.622 93.5765 487.042 108.209 487.358 123.597L487.684 139.447C487.71 140.717 487.485 141.979 487.023 143.162C486.561 144.345 485.87 145.425 484.99 146.342C484.11 147.258 483.058 147.992 481.895 148.502C480.731 149.012 479.478 149.288 478.207 149.314Z" fill="#E66E0F"/>
<path d="M475.624 161.135L392.909 162.833L392.779 156.524C392.508 143.29 397.508 130.49 406.68 120.939C415.852 111.389 428.445 105.871 441.688 105.599L524.416 103.901L524.546 110.21C524.681 116.764 523.522 123.28 521.136 129.387C518.75 135.493 515.184 141.07 510.641 145.799C506.098 150.528 500.667 154.316 494.659 156.947C488.651 159.579 482.183 161.002 475.624 161.135Z" fill="#DD3C1E"/>
<path d="M258.046 227.085C273.518 226.767 285.803 213.976 285.486 198.514C285.168 183.053 272.368 170.776 256.896 171.094C241.424 171.412 229.139 184.203 229.456 199.665C229.774 215.126 242.574 227.403 258.046 227.085Z" fill="white"/>
<path d="M344.385 232.493C359.857 232.175 372.142 219.384 371.825 203.922C371.507 188.461 358.707 176.184 343.235 176.502C327.763 176.82 315.478 189.611 315.795 205.073C316.113 220.534 328.913 232.811 344.385 232.493Z" fill="white"/>
<path d="M248.32 208.617C252.287 208.536 255.437 205.256 255.355 201.292C255.274 197.328 251.992 194.181 248.025 194.262C244.058 194.344 240.909 197.623 240.99 201.587C241.071 205.551 244.353 208.699 248.32 208.617Z" fill="#382219"/>
<path d="M337.577 215.397C341.544 215.315 344.694 212.036 344.612 208.071C344.531 204.107 341.249 200.96 337.282 201.041C333.315 201.123 330.165 204.402 330.247 208.366C330.328 212.331 333.61 215.478 337.577 215.397Z" fill="#382219"/>
<path d="M294.94 239.271C289.831 239.516 287.529 256.915 286.798 262.437C285.303 273.673 287.524 275.978 288.525 276.775C291.215 278.892 295.692 278.353 298.583 276.569C303.785 273.345 303.94 265.982 304.039 262.083C304.268 251.447 299.308 239.041 294.94 239.271Z" fill="#EB977F"/>
<path d="M342.353 335.301C349.978 329.344 355.946 321.531 359.685 312.611C361.257 308.221 363.021 303.228 360.893 301.086C356.808 297.031 345.366 310.809 323.801 314.778C307.627 317.715 291.043 317.566 274.925 314.338C271.725 313.573 265.515 311.899 263.422 314.574C260.544 318.262 267.287 327.821 268.024 328.841C270.515 332.318 273.608 335.323 277.156 337.713C288.811 335.182 300.692 333.83 312.618 333.675C322.557 333.43 332.5 333.973 342.353 335.301Z" fill="#752045"/>
<path d="M341.485 335.97L342.353 335.301C332.525 333.981 322.608 333.441 312.695 333.687C300.769 333.841 288.888 335.193 277.233 337.724C278.508 338.591 279.835 339.379 281.207 340.083C294.581 346.963 320.764 351.179 341.485 335.97Z" fill="#B41740"/>
<path d="M419.778 263.987C431.283 263.75 440.3 248.452 439.917 229.816C439.534 211.181 429.897 196.265 418.392 196.501C406.887 196.737 397.87 212.036 398.253 230.672C398.635 249.307 408.272 264.223 419.778 263.987Z" fill="#F4C7A0"/>
<path d="M429.482 246.551C432.256 246.494 434.386 240.661 434.24 233.523C434.093 226.385 431.725 220.644 428.951 220.701C426.177 220.758 424.048 226.591 424.194 233.729C424.341 240.868 426.708 246.608 429.482 246.551Z" fill="#EB977F"/>
</g>
<defs>
<clipPath id="clip0">
<rect width="685" height="671" fill="white" transform="translate(0 14.0615) rotate(-1.17623)"/>
</clipPath>
</defs>
</svg>
